# xmcd
#
# Track frame offsets:
#	183
#	10205
#	18448
#	26863
#	37540
#	52215
#	66925
#	81133
#	90653
#	98555
#	112378
#	123930
#	133020
#	142138
#	151425
#	161678
#	174890
#	184490
#	198303
#	214363
#	226278
#	235403
#	248005
#	254458
#
# Disc length: 3569 seconds
# Revision: 0
# Processed by: cddbd v1.5.2PL0 Copyright (c) Steve Scherf et al.
# Submitted via: dBpowerAMP V12.0
#
DISCID=540def18
DTITLE=The Fireside Singers - 150 All Time Sing Along Favorites Disc 5
DYEAR=1990
DGENRE=Sing A Long
TTITLE0=Greensleves
TTITLE1=Comin Thru The Rye
TTITLE2=Vive L'Amour Viva La Compagnie
TTITLE3=Du  Du  Liegst Mir Im Herzen
TTITLE4=Santa Lucia
TTITLE5=MacMamara's Band
TTITLE6=Cockles and Mussel Molly Malone
TTITLE7=Guantanamera
TTITLE8=My Wild Irish Rose
TTITLE9=Loch Lomomnd
TTITLE10=Mairzy Doats and Dozy Doats and Chickery Chick
TTITLE11=ABA Dba Honeymoon
TTITLE12=The Hut Sut Song
TTITLE13=Cuanto Le Gusta
TTITLE14=Bibbidi Bobbidi Voo The Magic Flute Song The Magic Flute Song and Chi Baba Chi Baba My Bambino Go To Sleep
TTITLE15=Dig You Later A Hubba Hubba Hubba and Shoo-Fly Pie and Apple Pan Dowdy
TTITLE16=Three Little Fishies Itty Bitty Poo
TTITLE17=Collegiate
TTITLE18=The Sweetheart Of Sigma Chi
TTITLE19=Buckle Down Winsocki
TTITLE20=Far Above Cayuga's Water
TTITLE21=Notre Dame Victory March and Ramblin Wreck From Georgia Tech
TTITLE22=Gaudeamus Igitur
TTITLE23=Yale Boola The Whiffenpoof Song
EXTD=
EXTT0=
EXTT1=
EXTT2=
EXTT3=
EXTT4=
EXTT5=
EXTT6=
EXTT7=
EXTT8=
EXTT9=
EXTT10=
EXTT11=
EXTT12=
EXTT13=
EXTT14=
EXTT15=
EXTT16=
EXTT17=
EXTT18=
EXTT19=
EXTT20=
EXTT21=
EXTT22=
EXTT23=
PLAYORDER=
